<svg xmlns="http://www.w3.org/2000/svg" xmlns:xlink="http://www.w3.org/1999/xlink" width="500" zoomAndPan="magnify" viewBox="0 0 375 374.999991" height="500" preserveAspectRatio="xMidYMid meet" version="1.0"><defs><g/><clipPath id="4ce71f4124"><path d="M 117.40625 95.929688 L 257.574219 95.929688 L 257.574219 209.929688 L 117.40625 209.929688 Z M 117.40625 95.929688 " clip-rule="nonzero"/></clipPath></defs><rect x="-37.5" width="450" fill="#ffffff" y="-37.499999" height="449.999989" fill-opacity="1"/><rect x="-37.5" width="450" fill="#ffffff" y="-37.499999" height="449.999989" fill-opacity="1"/><g fill="#523a16" fill-opacity="1"><g transform="translate(55.516519, 252.403316)"><g><path d="M 29.6875 0 L 24.8125 0 L 22.640625 -14.46875 L 16.015625 -0.03125 L 14.84375 -0.03125 L 8.234375 -14.46875 L 6.046875 0 L 1.140625 0 L 4.625 -22.15625 L 9.4375 -22.15625 L 15.421875 -8.578125 L 21.4375 -22.15625 L 26.25 -22.15625 Z M 29.6875 0 "/></g></g></g><g fill="#523a16" fill-opacity="1"><g transform="translate(92.702602, 252.403316)"><g><path d="M 7.34375 -4.46875 L 16.171875 -4.46875 L 16.171875 0 L 2.53125 0 L 2.53125 -22.15625 L 15.828125 -22.15625 L 15.828125 -17.734375 L 7.34375 -17.734375 L 7.34375 -13.359375 L 15 -13.359375 L 15 -9.015625 L 7.34375 -9.015625 Z M 7.34375 -4.46875 "/></g></g></g><g fill="#523a16" fill-opacity="1"><g transform="translate(116.724057, 252.403316)"><g><path d="M 17.25 0 L 15.703125 -4.203125 L 6.875 -4.203125 L 5.34375 0 L 0.28125 0 L 8.953125 -22.15625 L 13.484375 -22.15625 L 22.4375 0 Z M 11.265625 -16.296875 L 8.390625 -8.390625 L 14.1875 -8.390625 Z M 11.265625 -16.296875 "/></g></g></g><g fill="#523a16" fill-opacity="1"><g transform="translate(145.777185, 252.403316)"><g><path d="M 7.34375 -4.46875 L 15.828125 -4.46875 L 15.828125 0 L 2.53125 0 L 2.53125 -22.15625 L 7.34375 -22.15625 Z M 7.34375 -4.46875 "/></g></g></g><g fill="#523a16" fill-opacity="1"><g transform="translate(168.62774, 252.403316)"><g/></g></g><g fill="#523a16" fill-opacity="1"><g transform="translate(182.522554, 252.403316)"><g><path d="M 15.859375 -11.6875 C 16.828125 -11.175781 17.582031 -10.460938 18.125 -9.546875 C 18.664062 -8.628906 18.9375 -7.578125 18.9375 -6.390625 C 18.9375 -5.210938 18.625 -4.132812 18 -3.15625 C 17.375 -2.1875 16.523438 -1.414062 15.453125 -0.84375 C 14.390625 -0.28125 13.226562 0 11.96875 0 L 2.53125 0 L 2.53125 -22.15625 L 11.71875 -22.15625 C 12.976562 -22.15625 14.109375 -21.90625 15.109375 -21.40625 C 16.117188 -20.914062 16.910156 -20.238281 17.484375 -19.375 C 18.066406 -18.507812 18.359375 -17.539062 18.359375 -16.46875 C 18.359375 -15.507812 18.132812 -14.609375 17.6875 -13.765625 C 17.25 -12.921875 16.640625 -12.226562 15.859375 -11.6875 Z M 13.703125 -15.703125 C 13.703125 -16.398438 13.476562 -16.96875 13.03125 -17.40625 C 12.59375 -17.851562 11.992188 -18.078125 11.234375 -18.078125 L 7.25 -18.078125 L 7.25 -13.359375 L 11.234375 -13.359375 C 11.992188 -13.359375 12.59375 -13.578125 13.03125 -14.015625 C 13.476562 -14.460938 13.703125 -15.023438 13.703125 -15.703125 Z M 11.484375 -4.40625 C 12.285156 -4.40625 12.925781 -4.632812 13.40625 -5.09375 C 13.882812 -5.5625 14.125 -6.164062 14.125 -6.90625 C 14.125 -7.625 13.882812 -8.210938 13.40625 -8.671875 C 12.925781 -9.140625 12.285156 -9.375 11.484375 -9.375 L 7.25 -9.375 L 7.25 -4.40625 Z M 11.484375 -4.40625 "/></g></g></g><g fill="#523a16" fill-opacity="1"><g transform="translate(209.170597, 252.403316)"><g><path d="M 11.453125 0.46875 C 9.703125 0.46875 8.140625 0.0976562 6.765625 -0.640625 C 5.398438 -1.390625 4.316406 -2.425781 3.515625 -3.75 C 2.710938 -5.070312 2.3125 -6.597656 2.3125 -8.328125 L 2.3125 -22.15625 L 7.125 -22.15625 L 7.125 -8.546875 C 7.125 -7.171875 7.53125 -6.078125 8.34375 -5.265625 C 9.15625 -4.453125 10.191406 -4.046875 11.453125 -4.046875 C 12.742188 -4.046875 13.796875 -4.453125 14.609375 -5.265625 C 15.421875 -6.078125 15.828125 -7.171875 15.828125 -8.546875 L 15.828125 -22.15625 L 20.609375 -22.15625 L 20.609375 -8.328125 C 20.609375 -6.597656 20.210938 -5.070312 19.421875 -3.75 C 18.628906 -2.425781 17.539062 -1.390625 16.15625 -0.640625 C 14.78125 0.0976562 13.210938 0.46875 11.453125 0.46875 Z M 11.453125 0.46875 "/></g></g></g><g fill="#523a16" fill-opacity="1"><g transform="translate(238.4136, 252.403316)"><g><path d="M 10.921875 -22.15625 C 12.546875 -22.15625 14.039062 -21.878906 15.40625 -21.328125 C 16.78125 -20.785156 17.96875 -20.015625 18.96875 -19.015625 C 19.976562 -18.023438 20.757812 -16.859375 21.3125 -15.515625 C 21.875 -14.179688 22.15625 -12.710938 22.15625 -11.109375 C 22.15625 -9.503906 21.875 -8.023438 21.3125 -6.671875 C 20.757812 -5.328125 19.976562 -4.148438 18.96875 -3.140625 C 17.96875 -2.140625 16.78125 -1.363281 15.40625 -0.8125 C 14.039062 -0.269531 12.546875 0 10.921875 0 L 2.53125 0 L 2.53125 -22.15625 Z M 10.796875 -4.46875 C 12.054688 -4.46875 13.171875 -4.75 14.140625 -5.3125 C 15.117188 -5.882812 15.878906 -6.671875 16.421875 -7.671875 C 16.972656 -8.679688 17.25 -9.828125 17.25 -11.109375 C 17.25 -12.398438 16.972656 -13.539062 16.421875 -14.53125 C 15.878906 -15.519531 15.117188 -16.296875 14.140625 -16.859375 C 13.171875 -17.421875 12.054688 -17.703125 10.796875 -17.703125 L 7.34375 -17.703125 L 7.34375 -4.46875 Z M 10.796875 -4.46875 "/></g></g></g><g fill="#523a16" fill-opacity="1"><g transform="translate(268.194584, 252.403316)"><g><path d="M 10.921875 -22.15625 C 12.546875 -22.15625 14.039062 -21.878906 15.40625 -21.328125 C 16.78125 -20.785156 17.96875 -20.015625 18.96875 -19.015625 C 19.976562 -18.023438 20.757812 -16.859375 21.3125 -15.515625 C 21.875 -14.179688 22.15625 -12.710938 22.15625 -11.109375 C 22.15625 -9.503906 21.875 -8.023438 21.3125 -6.671875 C 20.757812 -5.328125 19.976562 -4.148438 18.96875 -3.140625 C 17.96875 -2.140625 16.78125 -1.363281 15.40625 -0.8125 C 14.039062 -0.269531 12.546875 0 10.921875 0 L 2.53125 0 L 2.53125 -22.15625 Z M 10.796875 -4.46875 C 12.054688 -4.46875 13.171875 -4.75 14.140625 -5.3125 C 15.117188 -5.882812 15.878906 -6.671875 16.421875 -7.671875 C 16.972656 -8.679688 17.25 -9.828125 17.25 -11.109375 C 17.25 -12.398438 16.972656 -13.539062 16.421875 -14.53125 C 15.878906 -15.519531 15.117188 -16.296875 14.140625 -16.859375 C 13.171875 -17.421875 12.054688 -17.703125 10.796875 -17.703125 L 7.34375 -17.703125 L 7.34375 -4.46875 Z M 10.796875 -4.46875 "/></g></g></g><g fill="#523a16" fill-opacity="1"><g transform="translate(297.975568, 252.403316)"><g><path d="M 20.984375 -22.15625 L 13.203125 -8.953125 L 13.203125 0 L 8.265625 0 L 8.265625 -8.984375 L 0.53125 -22.15625 L 5.640625 -22.15625 L 10.765625 -13.296875 L 15.890625 -22.15625 Z M 20.984375 -22.15625 "/></g></g></g><g fill="#b48134" fill-opacity="1"><g transform="translate(104.756402, 275.08797)"><g><path d="M 4.15625 -8.4375 C 4.769531 -8.4375 5.335938 -8.332031 5.859375 -8.125 C 6.390625 -7.914062 6.84375 -7.617188 7.21875 -7.234375 C 7.601562 -6.859375 7.898438 -6.414062 8.109375 -5.90625 C 8.328125 -5.394531 8.4375 -4.835938 8.4375 -4.234375 C 8.4375 -3.617188 8.328125 -3.050781 8.109375 -2.53125 C 7.898438 -2.019531 7.601562 -1.570312 7.21875 -1.1875 C 6.84375 -0.8125 6.390625 -0.519531 5.859375 -0.3125 C 5.335938 -0.101562 4.769531 0 4.15625 0 L 0.96875 0 L 0.96875 -8.4375 Z M 4.109375 -1.703125 C 4.585938 -1.703125 5.007812 -1.804688 5.375 -2.015625 C 5.75 -2.234375 6.039062 -2.535156 6.25 -2.921875 C 6.457031 -3.304688 6.5625 -3.742188 6.5625 -4.234375 C 6.5625 -4.722656 6.457031 -5.15625 6.25 -5.53125 C 6.039062 -5.90625 5.75 -6.195312 5.375 -6.40625 C 5.007812 -6.625 4.585938 -6.734375 4.109375 -6.734375 L 2.796875 -6.734375 L 2.796875 -1.703125 Z M 4.109375 -1.703125 "/></g></g></g><g fill="#b48134" fill-opacity="1"><g transform="translate(118.493412, 275.08797)"><g><path d="M 2.796875 -1.703125 L 6.15625 -1.703125 L 6.15625 0 L 0.96875 0 L 0.96875 -8.4375 L 6.015625 -8.4375 L 6.015625 -6.75 L 2.796875 -6.75 L 2.796875 -5.078125 L 5.703125 -5.078125 L 5.703125 -3.4375 L 2.796875 -3.4375 Z M 2.796875 -1.703125 "/></g></g></g><g fill="#b48134" fill-opacity="1"><g transform="translate(130.040035, 275.08797)"><g><path d="M 2.796875 -1.703125 L 6.015625 -1.703125 L 6.015625 0 L 0.96875 0 L 0.96875 -8.4375 L 2.796875 -8.4375 Z M 2.796875 -1.703125 "/></g></g></g><g fill="#b48134" fill-opacity="1"><g transform="translate(141.141356, 275.08797)"><g><path d="M 0.96875 0 L 0.96875 -8.4375 L 2.796875 -8.4375 L 2.796875 0 Z M 0.96875 0 "/></g></g></g><g fill="#b48134" fill-opacity="1"><g transform="translate(149.71532, 275.08797)"><g><path d="M 4.828125 0.1875 C 4.210938 0.1875 3.640625 0.078125 3.109375 -0.140625 C 2.578125 -0.367188 2.113281 -0.679688 1.71875 -1.078125 C 1.320312 -1.472656 1.015625 -1.9375 0.796875 -2.46875 C 0.585938 -3.007812 0.484375 -3.585938 0.484375 -4.203125 C 0.484375 -4.828125 0.585938 -5.410156 0.796875 -5.953125 C 1.015625 -6.492188 1.320312 -6.960938 1.71875 -7.359375 C 2.113281 -7.753906 2.578125 -8.0625 3.109375 -8.28125 C 3.640625 -8.5 4.210938 -8.609375 4.828125 -8.609375 C 5.515625 -8.609375 6.140625 -8.46875 6.703125 -8.1875 C 7.273438 -7.90625 7.753906 -7.507812 8.140625 -7 C 8.523438 -6.5 8.785156 -5.914062 8.921875 -5.25 L 7.078125 -5.25 C 6.910156 -5.75 6.625 -6.144531 6.21875 -6.4375 C 5.820312 -6.726562 5.359375 -6.875 4.828125 -6.875 C 4.359375 -6.875 3.929688 -6.753906 3.546875 -6.515625 C 3.171875 -6.285156 2.875 -5.96875 2.65625 -5.5625 C 2.4375 -5.164062 2.328125 -4.710938 2.328125 -4.203125 C 2.328125 -3.703125 2.4375 -3.25 2.65625 -2.84375 C 2.875 -2.445312 3.171875 -2.128906 3.546875 -1.890625 C 3.929688 -1.660156 4.359375 -1.546875 4.828125 -1.546875 C 5.378906 -1.546875 5.851562 -1.703125 6.25 -2.015625 C 6.65625 -2.335938 6.9375 -2.765625 7.09375 -3.296875 L 8.9375 -3.296875 C 8.8125 -2.597656 8.554688 -1.988281 8.171875 -1.46875 C 7.785156 -0.945312 7.304688 -0.539062 6.734375 -0.25 C 6.160156 0.0390625 5.523438 0.1875 4.828125 0.1875 Z M 4.828125 0.1875 "/></g></g></g><g fill="#b48134" fill-opacity="1"><g transform="translate(163.813382, 275.08797)"><g><path d="M 0.96875 0 L 0.96875 -8.4375 L 2.796875 -8.4375 L 2.796875 0 Z M 0.96875 0 "/></g></g></g><g fill="#b48134" fill-opacity="1"><g transform="translate(172.387346, 275.08797)"><g><path d="M 4.96875 0.1875 C 4.320312 0.1875 3.722656 0.078125 3.171875 -0.140625 C 2.628906 -0.367188 2.15625 -0.679688 1.75 -1.078125 C 1.34375 -1.472656 1.023438 -1.9375 0.796875 -2.46875 C 0.578125 -3.007812 0.46875 -3.59375 0.46875 -4.21875 C 0.46875 -4.84375 0.578125 -5.421875 0.796875 -5.953125 C 1.023438 -6.492188 1.34375 -6.960938 1.75 -7.359375 C 2.15625 -7.753906 2.628906 -8.0625 3.171875 -8.28125 C 3.722656 -8.5 4.320312 -8.609375 4.96875 -8.609375 C 5.601562 -8.609375 6.191406 -8.5 6.734375 -8.28125 C 7.285156 -8.0625 7.757812 -7.753906 8.15625 -7.359375 C 8.5625 -6.960938 8.875 -6.492188 9.09375 -5.953125 C 9.320312 -5.421875 9.4375 -4.84375 9.4375 -4.21875 C 9.4375 -3.59375 9.320312 -3.007812 9.09375 -2.46875 C 8.875 -1.9375 8.5625 -1.472656 8.15625 -1.078125 C 7.757812 -0.679688 7.285156 -0.367188 6.734375 -0.140625 C 6.191406 0.078125 5.601562 0.1875 4.96875 0.1875 Z M 4.96875 -1.546875 C 5.46875 -1.546875 5.914062 -1.660156 6.3125 -1.890625 C 6.71875 -2.117188 7.03125 -2.4375 7.25 -2.84375 C 7.476562 -3.25 7.59375 -3.707031 7.59375 -4.21875 C 7.59375 -4.71875 7.476562 -5.171875 7.25 -5.578125 C 7.03125 -5.984375 6.71875 -6.300781 6.3125 -6.53125 C 5.914062 -6.769531 5.46875 -6.890625 4.96875 -6.890625 C 4.46875 -6.890625 4.015625 -6.769531 3.609375 -6.53125 C 3.210938 -6.300781 2.894531 -5.984375 2.65625 -5.578125 C 2.425781 -5.171875 2.3125 -4.71875 2.3125 -4.21875 C 2.3125 -3.707031 2.425781 -3.25 2.65625 -2.84375 C 2.894531 -2.4375 3.210938 -2.117188 3.609375 -1.890625 C 4.015625 -1.660156 4.46875 -1.546875 4.96875 -1.546875 Z M 4.96875 -1.546875 "/></g></g></g><g fill="#b48134" fill-opacity="1"><g transform="translate(187.111228, 275.08797)"><g><path d="M 4.359375 0.1875 C 3.691406 0.1875 3.097656 0.046875 2.578125 -0.234375 C 2.054688 -0.523438 1.640625 -0.921875 1.328125 -1.421875 C 1.023438 -1.929688 0.875 -2.515625 0.875 -3.171875 L 0.875 -8.4375 L 2.703125 -8.4375 L 2.703125 -3.25 C 2.703125 -2.726562 2.859375 -2.3125 3.171875 -2 C 3.484375 -1.695312 3.878906 -1.546875 4.359375 -1.546875 C 4.847656 -1.546875 5.242188 -1.695312 5.546875 -2 C 5.859375 -2.3125 6.015625 -2.726562 6.015625 -3.25 L 6.015625 -8.4375 L 7.84375 -8.4375 L 7.84375 -3.171875 C 7.84375 -2.515625 7.691406 -1.929688 7.390625 -1.421875 C 7.085938 -0.921875 6.671875 -0.523438 6.140625 -0.234375 C 5.617188 0.046875 5.023438 0.1875 4.359375 0.1875 Z M 4.359375 0.1875 "/></g></g></g><g fill="#b48134" fill-opacity="1"><g transform="translate(200.643643, 275.08797)"><g><path d="M 3.765625 0.171875 C 3.117188 0.171875 2.550781 0.0546875 2.0625 -0.171875 C 1.570312 -0.410156 1.1875 -0.742188 0.90625 -1.171875 C 0.632812 -1.609375 0.5 -2.128906 0.5 -2.734375 L 2.34375 -2.734375 C 2.34375 -2.328125 2.484375 -2.023438 2.765625 -1.828125 C 3.046875 -1.628906 3.375 -1.53125 3.75 -1.53125 C 3.976562 -1.53125 4.191406 -1.566406 4.390625 -1.640625 C 4.597656 -1.722656 4.769531 -1.835938 4.90625 -1.984375 C 5.039062 -2.128906 5.109375 -2.304688 5.109375 -2.515625 C 5.109375 -2.734375 5.03125 -2.90625 4.875 -3.03125 C 4.726562 -3.15625 4.523438 -3.253906 4.265625 -3.328125 C 4.003906 -3.410156 3.722656 -3.488281 3.421875 -3.5625 C 3.109375 -3.632812 2.785156 -3.722656 2.453125 -3.828125 C 2.128906 -3.929688 1.828125 -4.066406 1.546875 -4.234375 C 1.265625 -4.410156 1.035156 -4.644531 0.859375 -4.9375 C 0.691406 -5.238281 0.609375 -5.613281 0.609375 -6.0625 C 0.609375 -6.875 0.882812 -7.5 1.4375 -7.9375 C 1.988281 -8.375 2.734375 -8.59375 3.671875 -8.59375 C 4.640625 -8.59375 5.382812 -8.347656 5.90625 -7.859375 C 6.4375 -7.367188 6.703125 -6.707031 6.703125 -5.875 L 4.90625 -5.875 C 4.90625 -6.238281 4.773438 -6.503906 4.515625 -6.671875 C 4.253906 -6.847656 3.957031 -6.9375 3.625 -6.9375 C 3.332031 -6.9375 3.0625 -6.867188 2.8125 -6.734375 C 2.5625 -6.609375 2.4375 -6.410156 2.4375 -6.140625 C 2.4375 -5.941406 2.507812 -5.785156 2.65625 -5.671875 C 2.800781 -5.554688 2.992188 -5.457031 3.234375 -5.375 C 3.484375 -5.300781 3.757812 -5.226562 4.0625 -5.15625 C 4.382812 -5.070312 4.710938 -4.972656 5.046875 -4.859375 C 5.378906 -4.753906 5.691406 -4.609375 5.984375 -4.421875 C 6.273438 -4.242188 6.507812 -4 6.6875 -3.6875 C 6.875 -3.382812 6.96875 -3.003906 6.96875 -2.546875 C 6.96875 -1.929688 6.816406 -1.421875 6.515625 -1.015625 C 6.222656 -0.617188 5.835938 -0.320312 5.359375 -0.125 C 4.878906 0.0703125 4.347656 0.171875 3.765625 0.171875 Z M 3.765625 0.171875 "/></g></g></g><g fill="#b48134" fill-opacity="1"><g transform="translate(212.912378, 275.08797)"><g/></g></g><g fill="#b48134" fill-opacity="1"><g transform="translate(220.607774, 275.08797)"><g><path d="M 6 -6.734375 L 2.796875 -6.734375 L 2.796875 -4.875 L 5.6875 -4.875 L 5.6875 -3.234375 L 2.796875 -3.234375 L 2.796875 0 L 0.96875 0 L 0.96875 -8.4375 L 6 -8.4375 Z M 6 -6.734375 "/></g></g></g><g fill="#b48134" fill-opacity="1"><g transform="translate(231.865556, 275.08797)"><g><path d="M 4.96875 0.1875 C 4.320312 0.1875 3.722656 0.078125 3.171875 -0.140625 C 2.628906 -0.367188 2.15625 -0.679688 1.75 -1.078125 C 1.34375 -1.472656 1.023438 -1.9375 0.796875 -2.46875 C 0.578125 -3.007812 0.46875 -3.59375 0.46875 -4.21875 C 0.46875 -4.84375 0.578125 -5.421875 0.796875 -5.953125 C 1.023438 -6.492188 1.34375 -6.960938 1.75 -7.359375 C 2.15625 -7.753906 2.628906 -8.0625 3.171875 -8.28125 C 3.722656 -8.5 4.320312 -8.609375 4.96875 -8.609375 C 5.601562 -8.609375 6.191406 -8.5 6.734375 -8.28125 C 7.285156 -8.0625 7.757812 -7.753906 8.15625 -7.359375 C 8.5625 -6.960938 8.875 -6.492188 9.09375 -5.953125 C 9.320312 -5.421875 9.4375 -4.84375 9.4375 -4.21875 C 9.4375 -3.59375 9.320312 -3.007812 9.09375 -2.46875 C 8.875 -1.9375 8.5625 -1.472656 8.15625 -1.078125 C 7.757812 -0.679688 7.285156 -0.367188 6.734375 -0.140625 C 6.191406 0.078125 5.601562 0.1875 4.96875 0.1875 Z M 4.96875 -1.546875 C 5.46875 -1.546875 5.914062 -1.660156 6.3125 -1.890625 C 6.71875 -2.117188 7.03125 -2.4375 7.25 -2.84375 C 7.476562 -3.25 7.59375 -3.707031 7.59375 -4.21875 C 7.59375 -4.71875 7.476562 -5.171875 7.25 -5.578125 C 7.03125 -5.984375 6.71875 -6.300781 6.3125 -6.53125 C 5.914062 -6.769531 5.46875 -6.890625 4.96875 -6.890625 C 4.46875 -6.890625 4.015625 -6.769531 3.609375 -6.53125 C 3.210938 -6.300781 2.894531 -5.984375 2.65625 -5.578125 C 2.425781 -5.171875 2.3125 -4.71875 2.3125 -4.21875 C 2.3125 -3.707031 2.425781 -3.25 2.65625 -2.84375 C 2.894531 -2.4375 3.210938 -2.117188 3.609375 -1.890625 C 4.015625 -1.660156 4.46875 -1.546875 4.96875 -1.546875 Z M 4.96875 -1.546875 "/></g></g></g><g fill="#b48134" fill-opacity="1"><g transform="translate(246.589432, 275.08797)"><g><path d="M 4.96875 0.1875 C 4.320312 0.1875 3.722656 0.078125 3.171875 -0.140625 C 2.628906 -0.367188 2.15625 -0.679688 1.75 -1.078125 C 1.34375 -1.472656 1.023438 -1.9375 0.796875 -2.46875 C 0.578125 -3.007812 0.46875 -3.59375 0.46875 -4.21875 C 0.46875 -4.84375 0.578125 -5.421875 0.796875 -5.953125 C 1.023438 -6.492188 1.34375 -6.960938 1.75 -7.359375 C 2.15625 -7.753906 2.628906 -8.0625 3.171875 -8.28125 C 3.722656 -8.5 4.320312 -8.609375 4.96875 -8.609375 C 5.601562 -8.609375 6.191406 -8.5 6.734375 -8.28125 C 7.285156 -8.0625 7.757812 -7.753906 8.15625 -7.359375 C 8.5625 -6.960938 8.875 -6.492188 9.09375 -5.953125 C 9.320312 -5.421875 9.4375 -4.84375 9.4375 -4.21875 C 9.4375 -3.59375 9.320312 -3.007812 9.09375 -2.46875 C 8.875 -1.9375 8.5625 -1.472656 8.15625 -1.078125 C 7.757812 -0.679688 7.285156 -0.367188 6.734375 -0.140625 C 6.191406 0.078125 5.601562 0.1875 4.96875 0.1875 Z M 4.96875 -1.546875 C 5.46875 -1.546875 5.914062 -1.660156 6.3125 -1.890625 C 6.71875 -2.117188 7.03125 -2.4375 7.25 -2.84375 C 7.476562 -3.25 7.59375 -3.707031 7.59375 -4.21875 C 7.59375 -4.71875 7.476562 -5.171875 7.25 -5.578125 C 7.03125 -5.984375 6.71875 -6.300781 6.3125 -6.53125 C 5.914062 -6.769531 5.46875 -6.890625 4.96875 -6.890625 C 4.46875 -6.890625 4.015625 -6.769531 3.609375 -6.53125 C 3.210938 -6.300781 2.894531 -5.984375 2.65625 -5.578125 C 2.425781 -5.171875 2.3125 -4.71875 2.3125 -4.21875 C 2.3125 -3.707031 2.425781 -3.25 2.65625 -2.84375 C 2.894531 -2.4375 3.210938 -2.117188 3.609375 -1.890625 C 4.015625 -1.660156 4.46875 -1.546875 4.96875 -1.546875 Z M 4.96875 -1.546875 "/></g></g></g><g fill="#b48134" fill-opacity="1"><g transform="translate(261.313308, 275.08797)"><g><path d="M 4.15625 -8.4375 C 4.769531 -8.4375 5.335938 -8.332031 5.859375 -8.125 C 6.390625 -7.914062 6.84375 -7.617188 7.21875 -7.234375 C 7.601562 -6.859375 7.898438 -6.414062 8.109375 -5.90625 C 8.328125 -5.394531 8.4375 -4.835938 8.4375 -4.234375 C 8.4375 -3.617188 8.328125 -3.050781 8.109375 -2.53125 C 7.898438 -2.019531 7.601562 -1.570312 7.21875 -1.1875 C 6.84375 -0.8125 6.390625 -0.519531 5.859375 -0.3125 C 5.335938 -0.101562 4.769531 0 4.15625 0 L 0.96875 0 L 0.96875 -8.4375 Z M 4.109375 -1.703125 C 4.585938 -1.703125 5.007812 -1.804688 5.375 -2.015625 C 5.75 -2.234375 6.039062 -2.535156 6.25 -2.921875 C 6.457031 -3.304688 6.5625 -3.742188 6.5625 -4.234375 C 6.5625 -4.722656 6.457031 -5.15625 6.25 -5.53125 C 6.039062 -5.90625 5.75 -6.195312 5.375 -6.40625 C 5.007812 -6.625 4.585938 -6.734375 4.109375 -6.734375 L 2.796875 -6.734375 L 2.796875 -1.703125 Z M 4.109375 -1.703125 "/></g></g></g><g clip-path="url(#4ce71f4124)"><path fill="#ffbd59" d="M 136.863281 201.984375 L 136.863281 138.605469 L 157.605469 124.65625 L 158.390625 125.441406 L 159.597656 125.835938 L 159.988281 126.226562 L 160.382812 126.226562 L 160.777344 126.621094 C 162.375 127.011719 163.976562 127.40625 165.96875 127.011719 L 166.363281 126.621094 L 167.148438 126.621094 L 167.539062 126.226562 L 168.328125 126.226562 L 168.71875 125.835938 L 185.476562 114.664062 C 185.476562 114.664062 185.871094 114.664062 185.871094 114.269531 L 186.261719 113.484375 L 186.65625 112.699219 L 186.261719 111.914062 L 186.261719 111.519531 L 185.054688 110.3125 C 185.054688 109.917969 183.847656 109.527344 183.847656 109.917969 L 182.726562 109.917969 L 181.941406 110.3125 L 169.589844 118.675781 C 167.988281 119.464844 167.988281 119.464844 167.203125 118.675781 C 166.417969 117.078125 168.804688 115.898438 170.402344 115.085938 L 181.574219 107.503906 L 181.96875 106.71875 L 181.96875 104.753906 L 181.574219 104.363281 L 181.183594 103.574219 L 180.789062 103.574219 L 180.394531 103.183594 L 179.527344 103.183594 L 179.527344 102.789062 L 178.738281 102.789062 L 178.738281 103.183594 L 177.5625 103.183594 L 164.761719 111.882812 C 163.554688 112.671875 163.160156 112.671875 162.375 111.882812 C 161.984375 111.097656 162.375 110.285156 163.160156 109.890625 L 175.511719 101.527344 C 176.296875 101.132812 177.113281 100.742188 177.113281 99.925781 L 177.503906 98.71875 L 177.113281 97.933594 C 177.113281 97.933594 177.113281 97.542969 176.71875 97.542969 L 176.328125 96.753906 L 175.933594 96.363281 L 175.539062 96.363281 L 174.332031 95.941406 L 173.941406 96.335938 L 173.546875 96.335938 L 172.761719 96.726562 L 158.8125 106.296875 L 156.820312 107.503906 L 156.425781 107.503906 L 156.03125 108.292969 L 154.855469 109.46875 L 154.855469 109.863281 L 154.460938 109.863281 L 154.066406 110.257812 L 154.066406 110.648438 L 153.675781 111.433594 L 153.675781 111.828125 L 153.28125 112.222656 L 153.28125 113.007812 L 152.890625 113.792969 L 152.890625 114.972656 L 153.28125 117.75 L 129.367188 134.507812 L 117.324219 142.589844 L 117.324219 151.769531 L 129.28125 143.796875 L 129.28125 209.59375 L 246.105469 209.59375 L 246.105469 143.796875 L 257.667969 151.769531 L 257.667969 142.589844 L 246.105469 134.621094 L 222.582031 118.675781 L 222.976562 116.683594 L 222.976562 115.871094 L 222.582031 115.085938 L 222.582031 113.121094 L 222.191406 112.726562 L 222.191406 112.332031 L 221.796875 111.546875 L 221.796875 110.707031 L 221.40625 110.3125 L 221.40625 109.917969 L 221.011719 109.917969 L 220.617188 108.710938 L 220.226562 108.320312 L 219.832031 107.535156 L 219.441406 107.140625 L 219.046875 106.746094 L 219.046875 106.355469 L 217.867188 105.175781 L 217.476562 104.78125 L 217.082031 104.390625 L 215.875 103.605469 L 213.488281 102.003906 L 213.097656 101.613281 L 212.308594 101.21875 L 211.917969 101.21875 L 211.132812 100.824219 L 210.34375 100.433594 L 209.558594 100.433594 L 208.351562 100.039062 L 206.359375 99.648438 L 203.609375 99.648438 L 203.214844 100.039062 L 201.222656 100.433594 L 199.847656 100.433594 L 199.453125 100.824219 L 199.0625 100.824219 L 199.0625 101.21875 L 198.667969 100.824219 L 198.667969 101.21875 L 198.277344 101.21875 L 197.882812 101.613281 L 197.488281 101.613281 L 197.488281 102.003906 L 197.097656 102.003906 L 196.3125 102.789062 L 195.917969 102.789062 L 195.917969 103.183594 L 195.523438 103.574219 L 195.523438 103.183594 L 194.738281 104.390625 L 194.738281 104.78125 L 194.347656 105.570312 L 193.953125 105.960938 L 193.953125 106.355469 L 193.558594 106.355469 L 193.558594 107.535156 L 193.167969 107.535156 L 193.167969 108.683594 L 192.773438 109.890625 L 192.773438 111.492188 L 193.167969 111.882812 L 193.167969 113.878906 L 193.558594 114.664062 L 193.953125 115.871094 L 194.347656 116.65625 L 194.347656 117.050781 L 194.738281 117.441406 L 194.738281 117.835938 L 195.132812 117.835938 L 195.132812 118.226562 L 195.523438 118.621094 L 195.523438 119.015625 L 195.917969 119.015625 L 195.917969 119.40625 L 196.3125 119.40625 L 196.703125 120.191406 L 197.097656 120.585938 L 197.488281 120.980469 L 197.488281 121.371094 L 198.277344 121.765625 L 198.667969 122.15625 L 199.453125 122.945312 L 199.847656 122.945312 C 200.242188 123.730469 200.242188 123.730469 201.449219 124.152344 L 202.234375 124.9375 L 202.625 124.9375 L 203.414062 125.328125 L 203.804688 125.328125 L 204.199219 125.722656 L 204.589844 125.722656 L 205.378906 126.117188 L 205.769531 126.117188 L 206.164062 126.507812 L 206.949219 126.507812 L 207.734375 126.902344 L 212.113281 126.902344 L 214.5 126.507812 L 215.707031 126.117188 L 216.492188 125.722656 L 218.09375 124.9375 L 238.414062 138.492188 L 238.414062 201.902344 L 228.84375 201.902344 L 228.84375 152.554688 L 195.074219 152.554688 L 195.074219 201.984375 Z M 202.65625 201.984375 L 202.65625 160.527344 L 221.40625 160.527344 L 221.40625 201.984375 Z M 202.65625 201.984375 " fill-opacity="1" fill-rule="nonzero"/></g><path fill="#ffbd59" d="M 145.648438 156.933594 L 157.996094 156.933594 L 157.996094 144.191406 L 145.648438 144.191406 Z M 145.648438 156.933594 " fill-opacity="1" fill-rule="nonzero"/><path fill="#ffbd59" d="M 157.996094 159.742188 L 145.648438 159.742188 L 145.648438 172.484375 L 157.996094 172.484375 Z M 157.996094 159.742188 " fill-opacity="1" fill-rule="nonzero"/><path fill="#ffbd59" d="M 161.195312 159.742188 L 161.195312 172.484375 L 173.941406 172.484375 L 173.941406 159.742188 Z M 161.195312 159.742188 " fill-opacity="1" fill-rule="nonzero"/><path fill="#ffbd59" d="M 161.195312 156.933594 L 173.941406 156.933594 L 173.941406 144.191406 L 161.195312 144.191406 Z M 161.195312 156.933594 " fill-opacity="1" fill-rule="nonzero"/></svg>